<?xml version="1.0" encoding="UTF-8"?>
<svg width="100px" height="100px" viewBox="0 0 100 100" version="1.1" xmlns="http://www.w3.org/2000/svg" xmlns:xlink="http://www.w3.org/1999/xlink">
    <!-- Generator: Sketch 50.2 (55047) - http://www.bohemiancoding.com/sketch -->
    <title>test_logo</title>
    <desc>Created with Sketch.</desc>
    <defs></defs>
    <g id="test_logo" stroke="none" stroke-width="1" fill="none" fill-rule="evenodd">
        <rect id="Rectangle-2" fill="#EF4135" x="0" y="0" width="100" height="100"></rect>
        <path d="M89.9691777,35.1535664 C89.7411082,33.1910889 88.2935377,31.4521678 85.6680554,29.984995 C85.3822978,29.8243556 85.0308024,29.819001 84.7383368,29.9662537 C81.7197701,31.5003596 80.066937,33.3129071 79.8241101,35.3543656 C79.5920159,37.3141658 80.7524871,38.8375624 81.3602252,39.4854745 L81.3602252,44.0944855 C81.3602252,44.4545854 80.7739525,44.7651548 80.4090413,44.7691708 C80.2292689,44.7624775 79.8522834,44.6982218 79.3746791,44.6018382 C79.3746791,43.9766833 79.3746791,43.6058741 79.3746791,43.6058741 C79.3746791,43.6058741 83.1807564,40.132048 77.5581727,36.9942258 C71.2715042,40.1896104 75.2788193,43.6058741 75.2788193,43.6058741 C75.2788193,43.6058741 75.2788193,43.6232767 75.2788193,43.625954 C75.0722152,43.5710689 74.8629279,43.5161838 74.675106,43.463976 C73.3174217,43.0436364 73.242293,42.2792607 73.2382682,42.202957 L73.2382682,36.2512687 C73.9358925,35.5270529 75.415661,33.6890709 75.2036906,31.3008991 C75.0037944,29.0211588 73.3469366,26.9556044 70.2840975,25.1604595 C69.9755329,24.9784016 69.5918395,24.9784016 69.2832749,25.1604595 C66.2204358,26.9569431 64.5635781,29.0224975 64.3636819,31.3008991 C64.1517114,33.6890709 65.6314799,35.5270529 66.3291042,36.2512687 L66.3291042,40.3622977 C66.3291042,41.5028372 65.0237418,42.28997 64.20135,42.3301299 C63.9129092,42.3207592 63.641909,42.306034 63.3695672,42.2913087 L63.3695672,41.0985614 C63.3695672,41.0985614 68.3079425,36.8871329 61.2753526,32.7640559 C54.2467876,36.8857942 59.1824797,41.0985614 59.1824797,41.0985614 C59.1824797,41.0985614 59.1824797,41.2806194 59.1824797,41.5577223 C56.4523537,40.4961638 55.2409023,38.0571229 55.2409023,32.5056943 L55.2409023,27.8243956 C55.8204671,26.9716683 56.8897105,24.873986 56.4429626,22.4684116 C55.9613335,19.8714086 53.9328566,17.7268731 50.4179033,16.0923676 C50.153611,15.9692108 49.8477296,15.9692108 49.5834373,16.0923676 C46.0698256,17.7255345 44.0440319,19.8687313 43.558378,22.4630569 C43.108947,24.8686314 44.1808736,26.9703297 44.7590968,27.8230569 L44.7590968,32.5043556 C44.7590968,38.0718482 43.5409374,40.5082118 40.8175194,41.5670929 C40.8175194,41.2846354 40.8175194,41.0972228 40.8175194,41.0972228 C40.8175194,41.0972228 45.754553,36.8857942 38.7246464,32.7627173 C31.6947398,36.8844555 36.6317734,41.0972228 36.6317734,41.0972228 L36.6317734,42.293986 C36.3822386,42.3073726 36.1367285,42.3207592 35.8751194,42.3287912 C34.9775988,42.2872927 33.6722364,41.5001598 33.6722364,40.3596204 L33.6722364,36.2485914 C34.3698607,35.5243756 35.8496292,33.6863936 35.6376588,31.2982218 C35.436421,29.0198202 33.7809048,26.9529271 30.7180657,25.1577822 C30.4095011,24.9757243 30.0258077,24.9757243 29.7172431,25.1577822 C26.654404,26.9542657 24.9988879,29.0198202 24.7976501,31.2982218 C24.5856796,33.6863936 26.0654481,35.5243756 26.7630724,36.2485914 L26.7630724,42.1922478 C26.7590477,42.2779221 26.6825773,43.040959 25.3557495,43.4532667 C25.1558533,43.5081518 24.9385165,43.5670529 24.7211797,43.6246154 C24.7211797,43.6219381 24.7211797,43.6031968 24.7211797,43.6031968 C24.7211797,43.6031968 28.7271532,40.1855944 22.4404848,36.9915485 C16.8205843,40.1307093 20.62532,43.6031968 20.62532,43.6031968 C20.62532,43.6031968 20.62532,43.978022 20.62532,44.6138861 C20.1571067,44.7062537 19.7868292,44.7651548 19.6016905,44.7651548 L19.5936409,44.7651548 C19.2260466,44.7611389 18.6411154,44.4505694 18.6411154,44.0904695 L18.6411154,39.4814585 C19.2475119,38.8335465 20.4079832,37.3088112 20.1758889,35.3503497 C19.933062,33.3088911 18.280229,31.4963437 15.2630038,29.9622378 C14.9691966,29.8136464 14.6203845,29.8203397 14.3319436,29.980979 C11.7051198,31.4481518 10.2575493,33.1870729 10.0308214,35.1495504 C9.79470238,37.1856543 10.9739558,38.7987413 11.5669365,39.4667333 L11.5669365,73.3562837 C11.5669365,73.4473127 11.5803523,73.5383417 11.6045009,73.6226773 C11.5951098,73.7137063 11.5669365,73.8020579 11.5669365,73.8944256 C11.5669365,73.9238761 11.574986,73.9533267 11.5763276,73.9827772 C11.5763276,74.0001798 11.5803523,74.0162438 11.5816939,74.0336464 C11.8835506,79.9184016 31.0521204,83 50.0006703,83 C68.9492202,83 88.1177901,79.9197403 88.4196467,74.0336464 C88.4209883,74.0162438 88.4250131,74.0001798 88.4250131,73.9827772 C88.4263547,73.9533267 88.4344042,73.9238761 88.4344042,73.8944256 C88.4344042,73.8007193 88.4062309,73.7123676 88.3968398,73.62 C88.4223299,73.5356643 88.4344042,73.4473127 88.4344042,73.3562837 L88.4344042,39.4707493 C89.0260433,38.8014186 90.2052967,37.1896703 89.9691777,35.1535664 Z M13.5417499,70.7900699 L13.5417499,57.7073327 C13.5417499,54.9189011 25.693829,51.0997003 45.7693105,50.6217982 C44.0748883,52.2643357 42.9734469,54.8573227 42.9734469,57.7796204 C42.9734469,60.6523876 44.0359824,63.2065534 45.6821074,64.8517682 C39.3699489,65.0083916 33.366355,65.501019 28.1274646,66.3122478 C22.7275841,67.1475724 16.6072722,68.5464735 13.5417499,70.7900699 Z M48.5316345,52.4664735 C48.6765257,52.4972627 48.8066595,52.5655345 48.9274021,52.6512088 C49.0897339,52.7636563 49.2306004,52.9135864 49.341952,53.1036763 C49.649175,53.6217383 49.7605266,54.3861139 49.5901452,55.1906494 C49.3218282,56.4476523 48.4658968,57.3298302 47.6354555,57.2508492 C47.5938664,57.2468332 47.5522773,57.2535265 47.5120297,57.2441558 C47.336282,57.2066733 47.1806582,57.116983 47.0397917,57.0005195 C46.8117222,56.8131069 46.634633,56.5386813 46.5205982,56.2 C46.4293704,56.7167233 46.3676575,57.2481718 46.3676575,57.8023776 C46.3676575,61.5051149 48.5316345,64.5144256 51.2027307,64.567972 C50.8150126,64.7018382 50.4179033,64.7915285 50.0006703,64.7915285 C47.2155394,64.7915285 44.9509435,61.6443357 44.9509435,57.7782817 C44.9509435,53.9122278 47.2155394,50.765035 50.0006703,50.765035 C50.451443,50.765035 50.8807502,50.8734665 51.2966417,51.0287512 C51.2885921,51.0287512 51.2818842,51.0260739 51.2738347,51.0260739 C50.1509279,51.0260739 49.1259567,51.5735864 48.2981987,52.4544256 C48.3760106,52.4530869 48.4538225,52.4504096 48.5316345,52.4664735 Z M62.6840171,71.5490909 C60.0571933,72.1514885 57.3793891,72.4741059 54.6895107,72.6467932 C57.3418247,72.6267133 59.9981635,72.6133267 62.6840171,72.6735664 C60.0585348,73.2746254 57.3820723,73.5972428 54.6948771,73.7699301 C57.3458495,73.7511888 59.9995051,73.7364635 62.6840171,73.7967033 C60.0558517,74.3977622 57.3767059,74.7203796 54.6868275,74.8944056 C57.3404831,74.8743257 59.9968219,74.8596004 62.6840171,74.9198402 C60.0585348,75.5208991 57.3820723,75.8435165 54.6935355,76.0175425 C57.3445079,75.9974625 59.9995051,75.9840759 62.6840171,76.0443157 C60.0571933,76.6453746 57.3807307,76.967992 54.6908523,77.1406793 C57.3431663,77.1205994 59.9995051,77.1072128 62.6840171,77.1674525 C60.0571933,77.7685115 57.3793891,78.0911289 54.6895107,78.2651548 C56.0445118,78.2544456 57.4008545,78.2464136 58.7625635,78.2477522 C60.0652428,78.2490909 61.3706052,78.2598002 62.6840171,78.2892507 C60.0585348,78.8903097 57.3847555,79.2129271 54.6962186,79.386953 C57.3471911,79.3668731 60.0008467,79.3534865 62.6840171,79.4123876 C58.7612219,80.311968 54.7297583,80.6225375 50.7063442,80.6734066 C50.7063442,80.6734066 50.7063442,80.6734066 50.7050026,80.6734066 C50.703661,80.6734066 50.7050026,80.6734066 50.703661,80.6734066 C46.6802469,80.6225375 42.6501248,80.3106294 38.7273296,79.4123876 C41.4105001,79.3534865 44.0654972,79.3682118 46.7151281,79.386953 C44.0279328,79.2129271 41.3528119,78.8903097 38.7273296,78.2892507 C39.5913105,78.2691708 40.4472419,78.2678322 41.3045148,78.2611389 C43.1156549,78.2477522 44.9214286,78.2490909 46.721836,78.2638162 C44.0319576,78.0897902 41.3541535,77.7671728 38.7273296,77.1661139 C41.4118416,77.1058741 44.0681804,77.1205994 46.7204944,77.1393407 C44.0319576,76.9666533 41.3541535,76.644036 38.7273296,76.042977 C41.4105001,75.9827373 44.0668388,75.9974625 46.7178112,76.0162038 C44.030616,75.8421778 41.3528119,75.5195604 38.7273296,74.9185015 C41.4131832,74.8582617 44.0708636,74.8743257 46.7231776,74.8930669 C44.0332992,74.719041 41.3541535,74.3964236 38.7273296,73.7953646 C41.4105001,73.7351249 44.0668388,73.7511888 46.7164697,73.7685914 C44.0292744,73.5959041 41.3514703,73.2732867 38.7273296,72.6722278 C41.4131832,72.611988 44.069522,72.6267133 46.721836,72.6454545 C44.0319576,72.4727672 41.3541535,72.1501499 38.7273296,71.5477522 C41.4105001,71.4888511 44.0654972,71.5035764 46.7151281,71.5223177 C44.0279328,71.3482917 41.3528119,71.0256743 38.7273296,70.4246154 C42.7574516,70.3362637 46.7272023,70.4139061 50.7050026,70.4246154 C54.6828028,70.4139061 58.6525535,70.3362637 62.6840171,70.4246154 C60.0585348,71.0256743 57.3847555,71.3482917 54.6962186,71.5223177 C57.3458495,71.5049151 60.0008467,71.4901898 62.6840171,71.5490909 Z M62.5391259,67.3323077 C61.8535759,67.3858541 61.1640011,67.4353846 60.462352,67.4795604 C60.1604953,67.4983017 59.8599802,67.5157043 59.5554404,67.5331069 C58.7209744,67.5812987 57.8784588,67.6227972 57.0292354,67.6576024 C56.8749531,67.6642957 56.7220124,67.6723277 56.5650469,67.679021 C52.2357513,67.8436763 47.7548566,67.8423377 43.4242195,67.6776823 C43.2779867,67.6723277 43.1330955,67.6656344 42.9868627,67.6589411 C42.1269066,67.6241359 41.2749999,67.5812987 40.4311428,67.5331069 C40.1346525,67.5157043 39.8408453,67.4983017 39.5456966,67.4795604 C38.8373396,67.4353846 38.1383737,67.3845155 37.4461157,67.330969 C37.2421947,67.3149051 37.0369322,67.3001798 36.8343528,67.2827772 C45.1709635,66.5987213 54.8223277,66.5987213 63.1602799,67.2827772 C62.9563589,67.2988412 62.7470716,67.3149051 62.5391259,67.3323077 Z M53.52099,61.1356444 C53.7356436,60.5774226 54.1689756,60.2307093 54.5566938,60.2454346 C54.607674,60.2467732 54.6586543,60.2400799 54.7082929,60.2548052 C54.717684,60.2588212 54.7297583,60.2534665 54.7391494,60.2574825 C54.8920901,60.3163836 54.9940506,60.4529271 55.0691793,60.6175824 C55.2019963,60.9080719 55.2167537,61.3136863 55.0571051,61.7273327 C54.8250108,62.3297303 54.3366738,62.6925075 53.9261487,62.6095105 C53.8979754,62.6028172 53.8644358,62.6148651 53.8362625,62.6028172 C53.7839407,62.5827373 53.7504011,62.5345455 53.7061287,62.5010789 C53.6108762,62.4261139 53.5384306,62.3270529 53.4874503,62.1998801 C53.3760988,61.9120679 53.3680493,61.5292108 53.52099,61.1356444 Z M86.4569075,70.7900699 C83.3927268,68.5464735 77.2697318,67.1475724 71.8725344,66.3109091 C66.6336441,65.501019 60.6300501,65.0070529 54.31655,64.8504296 C55.9626751,63.2052148 57.0252106,60.6497103 57.0252106,57.7782817 C57.0252106,54.855984 55.9237691,52.262997 54.2280054,50.6204595 C74.30617,51.097023 86.4569075,54.9175624 86.4569075,57.705994 L86.4569075,70.7900699 Z M86.778888,38.348951 C86.574967,38.5363636 86.4582491,38.8000799 86.4582491,39.0758442 L86.4582491,54.6016384 C81.0677596,50.6485714 65.4584154,48.5990809 49.9993287,48.5990809 C34.5415836,48.5990809 18.9322394,50.6499101 13.5417499,54.6016384 L13.5417499,39.0758442 C13.5417499,38.8027572 13.425032,38.5377023 13.2237942,38.3516284 C13.2090368,38.3382418 11.7963475,37.0022577 11.9935606,35.3677522 C12.1371102,34.175005 13.0936605,33.0344655 14.8363797,31.9729071 C16.8943714,33.1027373 18.0575258,34.3423377 18.2118081,35.5752448 C18.4009717,37.095964 17.0204805,38.3181618 17.0097478,38.3275325 C16.7897278,38.5149451 16.6636188,38.788032 16.6636188,39.0771828 L16.6636188,44.0971628 C16.6636188,45.6607193 18.1661942,46.7276324 19.570834,46.7436963 C20.8158251,46.7436963 25.0351107,45.5924476 25.9098242,45.3501499 C28.1851528,44.6446753 28.7566681,43.0262338 28.7352027,42.2056344 L28.7352027,35.8362837 C28.7352027,35.5511489 28.6077521,35.2767233 28.3917569,35.0893107 C28.3743163,35.0732468 26.5752505,33.4882717 26.7630724,31.4628771 C26.9012557,29.9716084 28.061727,28.5285315 30.2136297,27.1657742 C32.3655324,28.5285315 33.5273452,29.9716084 33.6641869,31.4628771 C33.8520088,33.4882717 32.052943,35.0732468 32.0381856,35.0866334 C31.8181656,35.274046 31.6920566,35.5471329 31.6920566,35.8362837 L31.6920566,40.364975 C31.6920566,42.5751049 33.8466425,44.214965 35.8563372,44.3033167 C43.9863437,44.048971 46.7298855,41.0717882 46.7298855,32.5097103 L46.7298855,27.5044555 C46.7298855,27.2782218 46.627925,27.0305694 46.4843754,26.8552048 C46.469618,26.8364635 45.0099732,24.9195005 45.5318499,22.6518082 C45.9383502,20.8887912 47.4382425,19.3533467 49.995304,18.0842957 C52.5523654,19.3533467 54.0535993,20.8887912 54.4587581,22.6531469 C54.9779515,24.9101299 53.5344058,26.8190609 53.5384306,26.8190609 C53.3599998,27.0024575 53.2607224,27.2474326 53.2607224,27.5031169 L53.2607224,32.5083716 C53.2607224,41.0704496 56.0042643,44.0476324 64.2093996,44.301978 C66.1439655,44.214965 68.2998929,42.5751049 68.2998929,40.364975 L68.2998929,35.8362837 C68.2998929,35.5511489 68.1724423,35.2767233 67.9564471,35.0893107 C67.9376649,35.0732468 66.1399407,33.4882717 66.3264211,31.4628771 C66.4659459,29.9716084 67.6250756,28.5285315 69.7783199,27.1657742 C71.9315642,28.5285315 73.0920354,29.9716084 73.2302187,31.4628771 C73.4180406,33.4882717 71.6189748,35.0732468 71.6028758,35.0866334 C71.3841974,35.274046 71.2567468,35.5471329 71.2567468,35.8362837 L71.2567468,42.1815385 C71.2352814,43.0262338 71.8081383,44.6433367 74.1129818,45.3581818 C74.9581805,45.5911089 79.2834513,46.7825175 80.4224571,46.7436963 C81.8270969,46.7276324 83.3296723,45.6607193 83.3296723,44.0971628 L83.3296723,39.0771828 C83.3296723,38.7893706 83.2022217,38.5149451 82.9835434,38.3275325 C82.9687859,38.3154845 81.600369,37.1013187 81.781483,35.5886314 C81.9277158,34.3517083 83.0922118,33.1080919 85.158253,31.9742458 C86.9009722,33.0358042 87.8561809,34.1763437 88.0010721,35.3690909 C88.2036515,37.0009191 86.7882791,38.3382418 86.778888,38.348951 Z M30.6778182,57.7073327 L33.1060874,60.22 L35.5356983,57.705994 L33.107429,55.1906494 L30.6778182,57.7073327 Z M19.3360566,59.7835964 L21.7643259,62.2962637 L24.1925951,59.7822577 L21.7643259,57.2669131 L19.3360566,59.7835964 Z M64.4656423,57.705994 L66.8939116,60.22 L69.3235225,57.7073327 L66.8939116,55.1906494 L64.4656423,57.705994 Z M75.8060623,59.7822577 L78.2343316,62.2962637 L80.6626009,59.7835964 L78.23299,57.2669131 L75.8060623,59.7822577 Z" id="Shape" fill="#FFFFFF" fill-rule="nonzero"></path>
    </g>
</svg>