<?xml version="1.0" encoding="utf-8"?><svg xmlns="http://www.w3.org/2000/svg" xmlns:xlink="http://www.w3.org/1999/xlink"><symbol viewBox="0 0 17.97 16.04" id="icon-home"><title>icon-home</title><path data-name="icon home" d="M17.74 8.23l-8-7.91a1 1 0 0 0-1.41 0l-8 7.91c-.54.43-.36.78.21.78h1.67v6.2c0 .44 0 .8.82.8h3.94V9.82h4v6.19h4.13c.61 0 .63-.36.63-.8v-6.2h1.67c.57 0 .75-.35.34-.78z" fill="#fff"/></symbol><symbol viewBox="0 0 14 16.05" id="icon-house"><title>icon-house</title><path data-name="projects copy" d="M14 5.87v9.62a.54.54 0 0 1-.14.39.49.49 0 0 1-.37.15h-4a.49.49 0 0 1-.37-.15.54.54 0 0 1-.12-.39V9H5v6.48a.54.54 0 0 1-.14.39.49.49 0 0 1-.37.15h-4a.46.46 0 0 1-.34-.12.54.54 0 0 1-.15-.41V5.87a.53.53 0 0 1 .17-.42L6.55.12a.48.48 0 0 1 .63 0l6.62 5.33a.49.49 0 0 1 .2.42z" fill="#c7c7c7"/></symbol><symbol viewBox="0 0 24 22.99" id="icon-loading"><title>icon-loading</title><path d="M22.4 12.23a.88.88 0 0 0-1 .74A9.49 9.49 0 0 1 3.5 16l1.64-.36-3.54-3.92-1.6 5 1.74-.38a11.25 11.25 0 0 0 21.42-3.14.88.88 0 0 0-.74-1M1.59 11h.1a.88.88 0 0 0 .87-.79A9.5 9.5 0 0 1 20.5 7l-1.64.36 3.54 3.91 1.6-5-1.74.38a11.25 11.25 0 0 0-21.45 3.4.88.88 0 0 0 .75 1" fill="#464646"/></symbol><symbol viewBox="0 0 18 11" id="icon-mail"><title>icon-mail</title><path d="M.6 1l7.5 3.85a2.26 2.26 0 0 0 1.81 0L17.41 1c.49-.25 1-1 0-1H.55C-.36 0 .11.78.6 1zm17 1.9L9.91 6.75a2.26 2.26 0 0 1-1.81 0L.39 2.93c-.38-.2-.38.07-.38.2v7a1.14 1.14 0 0 0 1 .87h16a1.14 1.14 0 0 0 1-.91v-7c0-.17 0-.4-.39-.2z" fill="#3a3f6d"/></symbol><symbol viewBox="0 0 10 16" id="icon-mark"><title>icon-mark</title><path d="M5 0a5 5 0 0 0-5 5c0 4.77 5 11 5 11s5-6.23 5-11a5 5 0 0 0-5-5zm0 7.76a2.7 2.7 0 1 1 2.7-2.7A2.7 2.7 0 0 1 5 7.76z" fill="#3a3f6d"/></symbol><symbol viewBox="0 0 10.02 14" id="icon-phone"><title>icon-phone</title><path d="M3.89 6.32c.86-1.49 1.92-3 2.6-2.58 1 .56 1.63 1.1 3-.71S9.24.66 8.29.11s-4.08 1-6.39 5.05-2.27 7.43-1.18 8.06 2.2 1.6 3.11-.46.16-2.35-.84-2.91c-.71-.39 0-2.05.9-3.53z" fill="#3a3f6d"/></symbol><symbol viewBox="0 0 16 16" id="icon-remove"><title>icon-remove</title><path data-name="remove copy" d="M8 0a8 8 0 1 0 8 8 8 8 0 0 0-8-8zm4.81 7v2H3.19V7h9.62z" fill="#e2e2e1"/></symbol><symbol viewBox="0 0 31.98 31.98" id="icon-search"><title>icon-search</title><path data-name="icon search" d="M31.27 27.01l-7.65-7.6a12.44 12.44 0 0 0 1.82-6.5A13.19 13.19 0 0 0 12.52.01 12.52 12.52 0 0 0 0 12.52a13.2 13.2 0 0 0 12.91 12.92 12.49 12.49 0 0 0 6.31-1.71l7.69 7.69a1.91 1.91 0 0 0 2.7 0l1.91-1.9c.78-.76.48-1.7-.25-2.51zM3.85 12.53a8.67 8.67 0 0 1 8.67-8.67 9.34 9.34 0 0 1 9.06 9.05 8.67 8.67 0 0 1-8.67 8.67 9.34 9.34 0 0 1-9.06-9.05z" fill="#464646"/></symbol></svg>